# xmcd
#
# Track frame offsets:
#	150
#	15510
#	37000
#	61342
#	82357
#	110870
#	129822
#	146452
#	171140
#	193475
#	217972
#	239095
#	267767
#	286910
#	303730
#
# Disc length: 4344 seconds
#
# Revision: 1
# Processed by: cddbd v1.5.1PL0 Copyright (c) Steve Scherf et al.
# Submitted via: CDex 1.50Beta5
#
DISCID=e610f60f
DTITLE=VARIOUS ARTIST - LADY NAVIGATION
DYEAR=1900
DGENRE=
TTITLE0=LADY NAVIGATION
TTITLE1=BAD COMMUNICATION
TTITLE2=EASY COME、EASY GO!
TTITLE3=LOVING ALL NISHT
TTITLE4=GUITERは泣いている
TTITLE5=Nothing To Change
TTITLE6=愛しい人よ Good Night.・・・
TTITLE7=Love and Chain
TTITLE8=NEVER LET YOU GO
TTITLE9=(EASY COME、EASY GO)
TTITLE10=(LOVING ALL NIGHT)
TTITLE11=(GUITERは泣いている)
TTITLE12=(Nothing To Change)
TTITLE13=(愛しい人よ Good Night・・・)
TTITLE14=(NEVER LET YOU GO)
EXTD=
EXTT0=
EXTT1=
EXTT2=
EXTT3=
EXTT4=
EXTT5=
EXTT6=
EXTT7=
EXTT8=
EXTT9=
EXTT10=
EXTT11=
EXTT12=
EXTT13=
EXTT14=
PLAYORDER=
